<?xml version="1.0" encoding="utf-8" ?>
<svg xmlns="http://www.w3.org/2000/svg" xmlns:xlink="http://www.w3.org/1999/xlink" width="1024" height="1024">
	<path fill="white" transform="scale(1.6 1.6)" d="M332.577 101.015C332.09 101.121 325.385 100.611 324.183 100.594C236.937 99.3555 164.616 164.287 157.708 252.175C155.103 285.312 160.992 321.97 178.436 350.437C184.517 360.361 192.17 369.15 199.206 378.385C210.03 392.589 230.119 424.624 233.725 442.924C235.369 451.265 226.034 454.411 222.435 446.423C220.692 442.557 219.66 438.25 218.126 434.275C210.274 413.938 197.611 396.126 184.479 378.905L174.415 365.839C140.908 319.38 137.729 251.673 158.021 199.477C182.538 136.411 242.836 92.0443 310.806 88.7933L323.125 88.7677C408.194 88.8844 479.862 152.374 493.962 235.864C494.692 240.188 495.628 244.705 495.997 249.062C499.714 292.862 488.102 335.864 462.092 371.221C445.737 393.452 431.104 410.785 421.443 437.136C419.833 441.53 418.672 452.016 412.09 451.456C402.802 450.666 407.837 438.958 409.639 434.368C421.43 404.32 434.134 388.979 452.475 363.986C466.586 344.758 476.276 323.875 481.008 300.395L483.539 284.679C485.008 275.858 485.342 255.442 483.596 246.092L478.301 219.518C459.073 151.399 401.801 106.928 332.577 101.015Z"/>
	<path fill="white" transform="scale(1.6 1.6)" d="M326.822 580.585C308.97 583.984 289.733 572.466 283.802 555.353C282.089 550.41 283.141 543.505 278.95 542.656C275.353 541.927 271.692 541.515 268.125 540.629C250.502 536.254 241.44 521.22 243.222 503.467L239.986 501.258C229.216 492.977 229.611 477.155 237.692 467.272C242.994 460.787 250.316 458.09 258.403 457.231C256.799 452.197 256.131 446.589 254.864 441.405C248.332 414.683 236.607 391.09 221.06 368.503L201.971 341.854C185.146 316.031 178.741 284.622 181.182 254.081C186.779 184.068 243.497 130.829 313.156 125.434C320.123 125.232 327.365 124.937 334.306 125.592C390.826 130.925 441.224 175.468 455.5 230.131C465.044 266.677 459.612 308.544 439.67 340.625C435.18 347.848 429.87 354.488 424.905 361.379C403.175 391.54 388.872 420.291 382.648 457.063C404.543 458.874 418.087 485.213 401.891 499.042C398.315 502.096 398.572 501.139 398.459 505.822C398.088 521.277 389.432 535.685 373.304 538.461C369.12 539.181 364.569 539.019 360.322 539.111C359.697 541.298 359.65 543.831 359.236 546.094C356.028 563.622 344.793 577.018 326.822 580.585ZM314.283 137.262C215.251 142.633 158.448 256.928 214.078 338.47C221.99 350.067 230.906 360.965 238.351 372.886C254.52 398.778 265.949 427.02 270.207 457.404L326.688 457.45L370.409 457.302C371.157 455.193 371.087 452.971 371.468 450.783L374.034 439.12C381.55 408.928 395.412 382.273 413.334 357.048C438.533 321.58 451.108 301.546 447.711 254.765C443.419 195.65 392.451 143.524 333.429 137.583C327.147 136.95 320.604 137.081 314.294 137.257L314.283 137.262ZM266.293 469.036C261.724 469.118 255.034 468.385 251.001 470.906C242.125 476.455 239.251 491.779 252.03 493.06L374.844 493.054L384.441 492.987C401.95 492.808 400.621 474.589 386.562 469.853L386.178 469.72C384.634 469.226 382.793 469.231 381.184 469.164L266.293 469.036ZM281.483 504.754L254.706 504.949C254.696 529.025 266.991 527.598 285.137 531.856C315 538.862 319.815 546.627 348.991 528.236L349.426 528.008C358.34 523.398 380.834 533.126 385.668 513.75L385.773 513.343C386.363 510.817 385.805 507.674 385.335 505.162L281.483 504.754ZM347.405 543.594C324.324 553.694 316.192 552.902 293.792 546.735C295.106 551.903 296.568 555.734 300.13 559.794C304.872 564.84 310.501 568.405 317.5 569.143L318.088 569.21C332.377 570.681 341.671 560.686 346.372 548.461C346.92 547.036 348.008 545.323 347.712 543.75L347.405 543.594Z"/>
	<path fill="white" transform="scale(1.6 1.6)" d="M213.942 252.938L213.154 253.232C210.166 254.127 205.761 252.181 205.31 248.824C204.797 245.008 206.229 240.479 207.162 236.8C219.405 188.527 254.967 155.062 305.532 149.186C307.741 148.314 311.535 149.718 312.938 151.406C317.435 156.815 312.385 160.697 306.733 161.356L298.45 162.434C260.26 169.121 227.718 200.225 218.934 238C217.802 242.869 218.015 249.466 213.942 252.938Z"/>
	<path fill="white" transform="scale(1.6 1.6)" d="M344.793 390.853L343.524 403.594C342.505 411.069 337.705 409.989 331.879 410.007L307.305 410.024C295.495 409.999 298.245 405.984 297.127 395C296.791 391.696 296.131 388.387 295.556 385.116L282.467 326.875L278.151 312.371C276.704 307.918 274.967 303.663 274.3 298.999C272.656 287.486 281.745 277.503 292.871 276.042C302.93 275.484 308.108 279.678 312.547 288.62C313.615 289.05 322.515 286.493 329.522 288.831C340.337 264.806 371.75 276.487 368.54 300.399C367.778 306.071 361.824 318.252 359.681 325.398L352.521 353.316C349.579 365.716 346.709 378.246 344.793 390.853ZM293.916 287.596C282.698 289.91 283.184 303.198 296.203 303.579C307.254 302.259 305.694 287.925 293.916 287.596ZM346.78 287.558C336.349 290.226 336.385 303.986 348.598 303.712L348.829 303.711C360.437 300.861 358.323 286.762 346.78 287.558ZM314.339 304.844C305.959 312.536 304.7 317.548 290.297 313.2C297.984 335.573 302.232 358.855 307.013 381.97L310.031 398.427L315.091 398.443L315.172 313.355C315.172 310.647 315.527 307.498 314.955 304.876L314.339 304.844ZM326.811 304.464L327.304 398.226L331.294 398.232C332.341 396.863 332.349 393.99 332.6 392.258L334.352 381.883L346.318 330.351C347.684 325.409 348.729 320.063 350.712 315.354C334.362 315.26 336.76 311.814 326.811 304.464Z"/>
</svg>
