<?xml version="1.0" encoding="utf-8" ?>
<svg xmlns="http://www.w3.org/2000/svg" xmlns:xlink="http://www.w3.org/1999/xlink" width="1024" height="1024">
	<path fill="white" transform="scale(1.6 1.6)" d="M314.694 453.685L374.659 453.724C375.072 453.18 375.368 452.75 375.593 452.098C381.257 435.663 403.835 424.154 420.471 424.32C465.472 424.77 487.712 481.74 454.437 512.949C424.02 541.478 373.891 521.611 370.119 479.728C369.065 468.023 374 468.216 362.908 468.186L296.465 468.189C296.52 473.723 296.89 479.602 295.776 485.048C286.743 529.212 229.487 541.947 204.096 502.747C188.941 479.351 196.308 447.329 219.577 432.362C189.505 414.143 187.714 374.553 180.223 343.978L145.046 196.562C143.765 191.382 142.436 185.56 138.804 181.48C125.277 187.557 119.17 183.136 105.729 179.843C98.8788 178.164 91.4776 176.986 84.8438 174.668C60.3782 166.119 66.3315 134.08 90.0741 131.046C98.022 130.35 105.87 133.766 113.479 135.595C125.172 138.407 141.191 138.964 146.971 151.506C152.169 162.787 145.092 166.315 149.779 172.417C157.128 181.985 159.255 192.852 161.523 204.384L165.444 223.116C167.623 232.775 164.926 231.888 174.297 231.866L532.046 231.765C534.395 227.293 534.583 221.596 538.329 215.877C541.179 211.525 549.924 213.178 550.345 218.438C550.684 222.668 548.615 227.423 547.272 231.349L511.879 327.535L492.764 383.29C488.847 393.447 481.72 396.56 471.79 396.445L233.747 396.378C225.384 396.384 216.794 395.984 208.466 396.689C214.538 412.446 226.387 421.827 243.162 424.148C247.215 424.708 251.399 424.453 255.469 424.931C267.721 426.37 280.09 435.708 287.168 445.304C289.182 448.033 290.055 450.652 291.597 453.519L314.694 453.685ZM89.7919 145.654C82.3673 148.725 80.4042 157.743 89.3633 160.766C94.1805 162.391 99.4654 163.162 104.414 164.377L117.201 167.805C121.13 168.856 124.896 169.909 129.005 169.669C139.307 163.931 135.918 156.003 126.191 153.345L100 147.158C96.63 146.326 93.293 145.428 89.7919 145.654ZM223.045 246.15L171.312 246.266L181.317 288.329C181.515 289.326 181.485 290.719 182.131 291.508L475.781 291.568L503.795 291.583C505.362 291.589 508.117 292.132 509.496 291.756L524.757 250.766C525.346 249.304 525.784 247.64 526.565 246.28L223.045 246.15ZM185.892 305.993L192.945 336.072L486.833 335.94C488.899 335.939 491.51 336.186 493.487 335.631L496.278 328.596L503.943 306.905C504.083 306.415 504.022 306.603 504.325 306.075L185.892 305.993ZM197.854 350.023L196.719 350.351C196.702 352.713 197.667 355.6 198.209 357.945L202.624 378.24C202.842 379.543 202.87 381.133 203.559 382.279L465.632 382.208C469.61 382.203 473.534 382.34 477.44 381.458L480.017 375.544L486.887 355.539C487.505 353.757 487.754 351.754 488.672 350.118L197.854 350.023ZM242.74 438.875C198.165 443.223 200.36 513.272 250.703 511.548C297.154 505.569 289.138 434.047 242.74 438.875ZM416.116 439.166C368.028 445.846 379.167 517.76 424.999 511.352C470.116 503.965 464.036 435.536 416.116 439.166Z"/>
	<path fill="white" transform="scale(1.6 1.6)" d="M423.203 498.09C393.295 501.365 386.125 456.067 418.616 451.991C448.258 450.383 453.584 493.059 423.203 498.09ZM417.237 467.249C406.613 471.587 411.101 485.282 422.958 482.881C433.666 478.565 429.572 465.807 417.237 467.249Z"/>
	<path fill="white" transform="scale(1.6 1.6)" d="M250 498.018C218.543 501.655 213.58 457.595 242.477 452.27C274.467 449.386 280.381 491.364 250 498.018ZM244.551 466.937C233.406 470.382 236.199 484.458 248.381 483.332C259.022 479.823 256.907 465.669 244.551 466.937Z"/>
</svg>
