<?xml version="1.0" encoding="utf-8" ?>
<svg xmlns="http://www.w3.org/2000/svg" xmlns:xlink="http://www.w3.org/1999/xlink" width="1024" height="1024">
	<path fill="white" transform="scale(1.6 1.6)" d="M187.834 207.721C185.843 213.524 182.826 220.825 178.975 225.73C175.646 229.971 178.641 233.217 177.241 237.597C175.121 244.234 167.409 241.123 162.859 239.553L162.452 245.477C162.323 254.272 163.823 263.233 168.356 270.908C171.634 276.458 174.234 273.813 175.911 277.17C177.213 279.778 177.629 283.133 178.456 285.939C183.222 302.11 192.682 320.926 205.235 332.646C208.45 335.648 212.748 337.608 215.682 340.78C219.398 344.798 215.622 352.501 210.156 351.822C204.066 351.065 190.566 336.473 186.642 331.622C175.902 344.74 162.747 352.503 145.962 354.863C123.868 357.971 97.8373 361.76 95.356 389.096C93.4188 410.438 109.437 413.571 126.305 419.75L151.949 429.08C174.104 435.917 197.998 439.618 221.01 441.596C221.483 438.214 221.419 434.752 221.66 431.346L226.427 400.602C227.467 396.305 230.183 390.302 227.939 386.114L224.536 379.881C221.136 372.906 219.064 360.293 229.632 358.75C234.544 358.032 240.278 358.541 245.274 358.535C253.586 358.527 265.653 356.373 266.449 368.906C266.758 373.78 264.226 378.898 262.389 383.286C259.877 389.288 260.743 391.777 261.756 398.101L266.1 442.597C282.376 442.241 299.003 440.363 315.052 437.575L330.976 434.382C339.211 432.887 344.861 438.607 340.037 444.386C332.444 453.484 269.14 456.927 250.395 456.91L218.057 455.489C194.81 453.355 171.576 449.11 149.248 442.234L122.469 432.68C113.641 429.376 98.5589 424.007 91.25 417.84C70.4352 400.276 84.2186 363.191 105.999 351.164C128.928 338.504 154.638 347.159 172.298 326.471C176.783 321.218 179.005 320.95 176.362 316.244L172.692 309.165C169.698 302.844 168.108 295.404 165.421 289.955C163.887 286.845 160.959 284.377 158.967 281.535C148.145 266.101 142.667 238.278 157.722 223.676C158.956 222.479 162.072 221.638 162.706 220.754C162.868 220.528 162.743 210.54 162.801 209.302C163.673 190.618 168.238 164.474 180.403 150.557C193.226 135.887 211.349 123.66 231.111 122.318C252.732 119.735 269.064 131.325 288.002 139.067C295.42 142.099 303.384 143.436 309.876 148.431C325.505 160.455 327.571 182.29 327.577 200.62L327.46 220.955C334.012 222.515 337.298 226.497 339.387 233.038C343.875 247.095 339.688 265.935 331.975 278.167C329.655 281.846 325.828 284.507 323.901 288.385C321.183 293.856 319.492 300.153 317.178 305.844C315.01 311.179 312.237 315.93 309.624 321.032L312.856 326.094C321.308 337.645 332.905 340.813 346.309 343.259L359.737 345.573C379.435 314.641 417.909 297.688 454.092 302.946C501.961 309.901 536.852 351.721 536.669 399.733C536.55 430.963 521.963 460.445 496.406 478.874C432.297 525.103 344.052 478.858 343.976 399.073C343.972 395.636 343.77 391.907 344.375 388.514L345.722 379.626C347.098 372.475 349.127 365.675 352.112 359.037C323.216 351.545 320.978 353.995 300.162 333.074C293.904 340.505 280.66 352.502 271.069 354.931C267.491 353.298 263.813 348.308 265.647 344.219C267.018 341.16 272.306 338.939 275 337.18C293.127 325.344 306.562 302.579 311.36 281.533C312.352 277.181 311.736 275.383 316.094 273.69C326.938 269.477 327.237 245.445 326.465 236.323C323.833 239.908 319.915 244.372 314.863 242.331C309.532 240.178 311.364 234.133 311.25 229.531C310.814 212.043 297.446 192.674 291.27 175.016L290.987 175.135C273.743 182.301 251.82 186.053 234.261 178.699C228.26 176.186 223.09 172.087 217.145 169.668C208.245 166.047 199.555 175.857 197.488 183.534C195.195 192.05 190.785 199.419 187.834 207.721ZM233.913 135.773C202.098 137.223 177.57 168.061 178.54 199.224L178.618 199.864C185.954 189.725 181.96 175.507 194.682 163.283C213.387 145.309 228.977 164.638 248.233 168.192C258.627 169.544 268.423 168.436 278.228 164.849C283.784 162.816 290.934 157.656 296.855 160.864C304.465 164.989 307.238 183.86 313.534 192.651C311.885 181.009 311.741 166.956 301.323 159.197C296.279 155.44 289.311 154.445 283.561 152.02L265.808 143.474C255.005 138.452 245.848 135.306 233.913 135.773ZM433.819 315.977C405.629 318.259 378.578 335.85 365.858 361.272C341.012 410.932 371.954 475.573 429.062 483.157C435.155 483.966 441.781 483.868 447.89 483.44C495.839 478.873 527.323 435.773 522.853 388.924C519.319 351.876 485.953 319.512 449.062 316.093C444.076 315.631 438.835 315.94 433.819 315.977ZM236.509 372.66C241.317 380.368 242.76 383.403 241.621 392.434L238.38 410.977C237.935 413.549 233.733 441.416 235.076 442.803C235.839 443.592 240.319 443.256 241.435 443.268L251.016 443.285L252.109 443.218C252.683 437.375 252.054 431.27 251.505 425.44L249.42 407.235C248.062 398.299 245.192 389.44 247.465 380.385C248.081 377.933 250.52 374.554 252.527 372.884L236.509 372.66Z"/>
	<path fill="white" transform="scale(1.6 1.6)" d="M439.594 409.894C444.589 412.361 452.141 415.013 449.953 422.031C444.227 429.226 425.164 418.165 419.695 414.358C390.394 393.962 401.376 352.819 435.427 347.515C434.44 341.052 433.053 333.581 440.034 330.338L441.701 330.29C450.802 330.34 449.498 340.979 449.254 347.083C454.64 347.858 459.882 348.474 464.97 350.57C477.601 355.773 473.494 367.232 466.005 366.423C463.329 366.134 460.241 364.119 457.791 363.02C450.702 359.841 440.215 359.133 432.798 361.341C421.056 364.838 413.971 378.155 417.731 389.833C420.872 399.589 431.056 405.489 439.594 409.894Z"/>
	<path fill="white" transform="scale(1.6 1.6)" d="M416.496 452.198L412.622 450.387C396.58 441.683 403.887 427.077 411.406 430.375C412.961 431.056 414.498 433.411 415.653 434.713C432.122 453.277 474.005 441.231 468.26 413.744C463.72 392.025 433.299 392.131 430.876 378.154C430.094 373.643 431.874 370.191 436.443 369.449C441.348 370.047 444.131 374.536 448.179 377.04C454.239 380.789 460.857 383.392 466.719 387.544C492.238 405.62 485.191 449.117 452.437 453.995L448.473 454.887C448.572 458.003 448.86 461.292 448.548 464.393C447.636 473.429 430.321 474.207 434.666 456.194L434.81 455.61C428.399 455.008 422.62 454.396 416.496 452.198Z"/>
</svg>
