<?xml version="1.0" encoding="utf-8" ?>
<svg xmlns="http://www.w3.org/2000/svg" xmlns:xlink="http://www.w3.org/1999/xlink" width="1024" height="1024">
	<path fill="white" transform="scale(1.6 1.6)" d="M323.069 344.069C312.407 343.423 306.681 344.618 296.611 345.981C282.014 347.957 256.009 345.432 245.286 335.388C238.471 329.003 234.83 317.65 229.576 309.844C222.647 299.55 214.049 290.826 206.512 281.047C191.804 261.966 185.411 238.851 185.345 215C185.139 140.867 246.172 85.6899 319.109 82.3017C333.818 81.3118 348.294 82.205 362.636 85.6243C418.549 98.9543 454.597 140.782 458.362 198.668C460.138 225.984 453.954 254.297 440.168 277.959C423.37 306.788 389.252 340.116 355.221 343.834C351.133 344.28 346.867 344.139 342.761 344.137L323.069 344.069ZM322.264 97.29C287.782 98.3798 254.431 112.252 230.714 137.551C196.494 174.055 187.612 234.297 220.586 274.424C227.576 282.93 235.094 290.748 241.214 299.955L248.165 311.445C250.416 315.559 252.15 321.059 255.642 324.281C262.763 330.85 285.929 331.786 295.309 331.222C304.266 330.683 309.497 328.69 319.734 328.845L319.905 329.1L343.141 329.201C359.56 328.912 370.061 325.868 384.156 316.354C404.713 302.477 422.138 281.781 432.669 259.363C449.944 222.59 447.25 173.275 422.721 140.079C404.127 114.916 371.643 99.7919 340.832 97.4675C334.71 97.0057 328.405 97.2593 322.264 97.29Z"/>
	<path fill="white" transform="scale(1.6 1.6)" d="M327.887 305.052C319.05 303.351 320.309 296.852 320.458 289.422C318.753 288.765 317.025 288.705 315.28 288.239C296.426 283.198 283.693 270.144 279.219 250.82C278.267 246.708 277.202 240.053 279.701 236.31C282.256 232.482 286.784 231.468 290.433 234.404C294.251 237.474 293.558 241.886 294.017 246.244C296.161 266.592 314.387 275.64 333.194 273.314C365.49 269.319 369.69 228.206 332.428 221.282C317.801 218.565 305.256 219.613 292.162 209.666C273.429 195.436 271.007 166.573 285.261 148.379C293.697 137.609 305.734 133.111 318.894 131.433C318.05 124.549 317.015 118.906 324.491 115.98C334.649 115.639 333.519 125.023 333.424 132.319C334.103 132.992 335.058 133.328 335.964 133.585C356.315 139.374 367.282 156.864 370.694 176.562C371.776 182.809 370.372 193.002 361.678 189.996C350.438 186.108 360.554 158.162 333.921 149.035C291.516 134.504 274.8 191.698 310.625 202.386C316.495 204.137 322.706 204.353 328.721 205.395L334.473 206.412C336.509 206.767 336.617 206.37 338.447 205.371C345.786 208.88 352.854 212.223 359.17 217.446C377.574 232.664 380.189 259.316 361.645 275.806C356.259 280.595 349.428 284.133 342.766 286.76C341.88 287.109 336.212 288.561 335.943 288.983C334.417 291.376 340.182 304.175 327.887 305.052Z"/>
	<path fill="white" transform="scale(1.6 1.6)" d="M112.142 523.318C107.868 523.813 104.345 523.65 100.43 521.642C77.409 509.833 81.6001 473.478 86.4074 452.973C92.3213 427.747 96.9749 421.587 121.18 416.786C134.442 414.155 150.567 411.975 159.76 400.839C174.756 382.673 214.016 375.009 235.928 374.944L250.686 375.118C273.241 376.227 295.128 384.67 317.338 388.233L333.125 390.247C335.915 390.525 338.658 391.092 341.472 391.247L360.985 391.467C370.726 391.799 387.412 393.077 396.25 398.009L424.201 380.551C435.789 373.005 442.87 368.018 451.54 356.957C458.891 347.578 463.323 335.895 474.458 329.99L474.866 329.776C475.056 325.395 474.628 321.708 475.829 317.374C479.272 304.956 489.891 300.565 501.769 304.434L503.213 301.66C506.834 295.822 511.95 291.306 518.726 289.743C524.765 289.238 529.015 290.517 532.529 295.93C546.515 317.474 524.241 354.357 512.168 373.864C489.839 409.943 462.529 443.541 432.026 473.009L387.734 510.803C363.316 529.248 334.64 547.044 303.668 550.102C296.258 550.833 284.527 550.968 277.477 549.32L268.75 547.483C262.628 545.996 256.617 544.102 250.646 542.102L188.07 520.591C175.295 516.891 161.731 513.195 148.312 514.218C135.712 515.179 124.409 520.926 112.142 523.318ZM518.357 306.719L518.045 306.922C509.178 312.906 513.528 334.219 496.522 319.832C489.091 313.545 489.292 323.874 491.388 328.752C493.527 333.731 499.526 339.241 496.632 345.002C492.353 353.52 485.74 346.86 480.55 344.117C470.264 351.775 464.649 368.49 454.137 378.148C448.94 382.922 442.828 386.578 436.95 390.44L419.08 402.317C415.951 404.381 411.531 406.509 409 409.202L409.13 409.603C415.167 428.616 401.057 432.567 385.616 436.961L358.118 444.391C345.971 448.315 345.215 451.357 338.034 461.694C326.137 478.819 317.135 465.767 323.107 456.136C324.39 454.066 326.072 451.213 328.087 449.792L312.93 449.873C306.015 449.834 299.241 449.069 292.406 448.034L272.612 444.609C269.052 443.952 265.075 443.525 261.719 442.144C252.904 438.517 255.856 426.593 265.043 427.232C269.01 427.507 273.127 429.02 277.015 429.888C310.935 437.462 331.165 433.859 364.172 426.613L382.308 422.346C386.765 421.09 391.216 419.771 394.935 416.926C385.796 402.879 348.279 407.159 332.636 405.503L324.263 404.753C293.464 401.119 269.717 390.127 236.953 390.096C232.099 390.091 226.747 389.734 222.012 390.85L199.293 395.783C191.173 398.44 182.932 401.863 176.162 407.183C172.674 409.923 169.244 413.599 165.265 415.588C163.147 422.389 150.708 425.521 144.268 427.211L112.294 434.534C108.383 435.5 107.95 436.785 106.196 440.542C100.134 453.528 91.0227 500.392 106.639 507.99C111.588 510.398 126.745 503.471 132.335 501.726C161.115 492.741 202.272 508.31 229.772 518.485L261.562 529.732C269.188 532.131 277.286 534.459 285.282 535.148C361.072 541.679 458.439 429.824 495.681 371.329C502.407 360.765 527.098 320.675 521.737 307.961C521.114 306.482 519.823 306.178 518.357 306.719Z"/>
</svg>
